<svg xmlns="http://www.w3.org/2000/svg" width="29.714" height="29.715" viewBox="0 0 29.714 29.715">
  <g id="campaign" transform="translate(-16 25.681)">
    <g id="Group_4411" data-name="Group 4411" transform="translate(16 -25.681)">
      <circle id="Ellipse_7" data-name="Ellipse 7" cx="5.736" cy="5.736" r="5.736" transform="translate(15.87 18.244)" fill="#eceff1"/>
      <path id="Path_2177" data-name="Path 2177" d="M336.712,294.61a5.736,5.736,0,0,1,0,11.471q-.227,0-.451-.018a5.736,5.736,0,0,0,0-11.436Q336.485,294.61,336.712,294.61Zm-1.934,4.4q0,4.172,0,4.165h-1.386a.219.219,0,0,1-.219-.219v-3.727a.219.219,0,0,1,.219-.219Z" transform="translate(-315.107 -276.366)" fill="#d1d1d6" fill-rule="evenodd"/>
      <path id="Path_2178" data-name="Path 2178" d="M333.173,375.739h0a.219.219,0,0,0,.219.218h1.388v-4.165h-.219v3.946Z" transform="translate(-315.107 -349.153)" fill="#b1b1b5" fill-rule="evenodd"/>
      <path id="Path_2179" data-name="Path 2179" d="M364.269,320.966c-1.614.278-2.553.481-3.491-.418v-4.165c.74-.556,1.716-1.032,1.716-2.082v-1.264a1.521,1.521,0,0,1,1.517,1.516v.981a1.459,1.459,0,0,1-.421.772C365.939,316.909,364.939,320.994,364.269,320.966Z" transform="translate(-341.139 -293.742)" fill="#f6dccd" fill-rule="evenodd"/>
      <path id="Path_2180" data-name="Path 2180" d="M361.147,320.846a2.642,2.642,0,0,1-.368-.3v-4.165c.74-.556,1.716-1.032,1.716-2.082v-1.264a1.512,1.512,0,0,1,1.059.434,1.5,1.5,0,0,0-.776-.215v1.264c0,1.051-.977,1.527-1.716,2.082v4.165Z" transform="translate(-341.14 -293.743)" fill="#f1cbbc" fill-rule="evenodd"/>
      <path id="Path_2181" data-name="Path 2181" d="M411.114,372.944h.973a.6.6,0,0,0,0-1.205h.359a.6.6,0,0,0,0-1.205h.423a.6.6,0,1,0,0-1.205h-.254a.6.6,0,0,0,0-1.205h-1.5a.6.6,0,1,0,0,1.205h-.254a.6.6,0,1,0,0,1.205h.254a1.347,1.347,0,0,1-.6,1.808A.6.6,0,0,0,411.114,372.944Z" transform="translate(-387.801 -345.693)" fill="#f6dccd" fill-rule="evenodd"/>
      <g id="Group_4410" data-name="Group 4410" transform="translate(22.457 23.034)">
        <path id="Path_2182" data-name="Path 2182" d="M411.112,382.92h.973a.6.6,0,0,0,.6-.6H410.51A.6.6,0,0,0,411.112,382.92Zm.973-1.205h.359a.6.6,0,0,0,.6-.6H410.51a.6.6,0,0,0,.6.6Zm.359-1.205h.423a.6.6,0,0,0,.6-.6h-3.214a.6.6,0,0,0,.6.6h1.586Zm.169-1.205a.6.6,0,0,0,.6-.6H410.51a.6.6,0,0,0,.6.6Z" transform="translate(-410.256 -378.702)" fill="#f1cbbc" fill-rule="evenodd"/>
      </g>
      <circle id="Ellipse_8" data-name="Ellipse 8" cx="5.736" cy="5.736" r="5.736" transform="translate(0 2.374)" fill="#ffd064"/>
      <path id="Path_2183" data-name="Path 2183" d="M112.449,16.005a5.736,5.736,0,0,1,0,11.461q.12,0,.242.005a5.736,5.736,0,1,0,0-11.471Q112.569,16,112.449,16.005Z" transform="translate(-106.955 -13.626)" fill="#f5b829" fill-rule="evenodd"/>
      <circle id="Ellipse_9" data-name="Ellipse 9" cx="4.38" cy="4.38" r="4.38" transform="translate(1.356 3.73)" fill="#ffc338"/>
      <path id="Path_2184" data-name="Path 2184" d="M40.326,44.183a4.38,4.38,0,0,1,4.119-4.372q-.13-.008-.261-.008a4.38,4.38,0,1,0,0,8.76q.132,0,.261-.008A4.38,4.38,0,0,1,40.326,44.183Z" transform="translate(-38.448 -36.073)" fill="#f5b829" fill-rule="evenodd"/>
      <path id="Path_2185" data-name="Path 2185" d="M87.613,61.758a.456.456,0,1,1-.84.353.858.858,0,0,0-.594-.511,1.1,1.1,0,0,0-.482-.012.912.912,0,0,0-.395.178.529.529,0,0,0-.2.447.451.451,0,0,0,.222.368,1.776,1.776,0,0,0,.66.219,2.982,2.982,0,0,1,1.053.347,1.42,1.42,0,0,1,.72,1.089c0,.04.008.087.009.143a1.278,1.278,0,0,1-.536,1.088,2.065,2.065,0,0,1-.867.364v.2a.456.456,0,0,1-.911,0v-.213a1.99,1.99,0,0,1-.692-.285,1.643,1.643,0,0,1-.7-.986.455.455,0,0,1,.883-.217.744.744,0,0,0,.318.445,1.205,1.205,0,0,0,.692.183c.041,0,.093-.005.154-.013a1.213,1.213,0,0,0,.574-.205.409.409,0,0,0,.177-.344q0-.029-.006-.058a.551.551,0,0,0-.286-.416,2.119,2.119,0,0,0-.729-.23,2.643,2.643,0,0,1-1.009-.354,1.316,1.316,0,0,1-.635-1.087,1.411,1.411,0,0,1,.538-1.195,1.809,1.809,0,0,1,.719-.348v-.22a.456.456,0,1,1,.911,0v.214l.041.01A1.751,1.751,0,0,1,87.613,61.758Z" transform="translate(-80.168 -55.155)" fill="#ffe177" fill-rule="evenodd"/>
      <circle id="Ellipse_10" data-name="Ellipse 10" cx="5.736" cy="5.736" r="5.736" transform="translate(13.491 8.111) rotate(-45)" fill="#fe646f"/>
      <path id="Path_2186" data-name="Path 2186" d="M391.059,16.005a5.736,5.736,0,0,1,0,11.461q.12,0,.242.005A5.736,5.736,0,1,0,391.3,16Q391.179,16,391.059,16.005Z" transform="translate(-369.695 -13.626)" fill="#fd4755" fill-rule="evenodd"/>
      <ellipse id="Ellipse_11" data-name="Ellipse 11" cx="4.38" cy="4.38" rx="4.38" ry="4.38" transform="translate(16.575 4.495) rotate(-9.25)" fill="#eceff1"/>
      <path id="Path_2187" data-name="Path 2187" d="M318.936,44.183a4.38,4.38,0,0,1,4.119-4.372q-.13-.008-.261-.008a4.38,4.38,0,1,0,0,8.76q.131,0,.262-.008A4.38,4.38,0,0,1,318.936,44.183Z" transform="translate(-301.188 -36.073)" fill="#d1d1d6" fill-rule="evenodd"/>
      <path id="Path_2188" data-name="Path 2188" d="M346.25,76.373a.456.456,0,0,1,.644.644l-3.43,3.43a.456.456,0,0,1-.644-.644Zm.37,1.781a1.284,1.284,0,1,0,.908.376A1.28,1.28,0,0,0,346.62,78.154Zm.264,1.021a.373.373,0,1,0,.109.264A.372.372,0,0,0,346.884,79.175ZM343.094,76.1a1.284,1.284,0,1,0,.908.376A1.28,1.28,0,0,0,343.094,76.1Zm.264,1.021a.373.373,0,1,0,.109.264A.372.372,0,0,0,343.358,77.118Z" transform="translate(-323.252 -70.301)" fill="#fe646f" fill-rule="evenodd"/>
      <path id="Path_2189" data-name="Path 2189" d="M196.5,269.7a1.54,1.54,0,0,0-2.179,0c-.018.018-.164.165-.181.184l2.176,2.176c.018-.017.166-.163.184-.181A1.54,1.54,0,0,0,196.5,269.7Z" transform="translate(-183.995 -252.453)" fill="#8192a5" fill-rule="evenodd"/>
      <path id="Path_2190" data-name="Path 2190" d="M196.5,269.7a1.54,1.54,0,0,0-2.179,0c-.018.018-.164.165-.181.184l.277.277.131-.132a1.54,1.54,0,0,1,2.179,0q.028.028.055.058A1.538,1.538,0,0,0,196.5,269.7Z" transform="translate(-183.995 -252.453)" fill="#65788e" fill-rule="evenodd"/>
      <path id="Path_2191" data-name="Path 2191" d="M126.9,419.662l-3.791-3.791-1.368,1.368,2.778,2.778a1.435,1.435,0,0,0,2.026,0Z" transform="translate(-115.722 -390.72)" fill="#8192a5" fill-rule="evenodd"/>
      <path id="Path_2192" data-name="Path 2192" d="M126.9,419.662l-3.791-3.791-1.368,1.368.079.079,1.02-1.02,3.712,3.712Z" transform="translate(-115.721 -390.72)" fill="#65788e" fill-rule="evenodd"/>
      <path id="Path_2193" data-name="Path 2193" d="M48.192,243.646l-1.937,1.937a2.607,2.607,0,0,1-3.687-3.687l1.937-1.937c1.307-1.984,1.856-4.558,2.436-6.627a.792.792,0,0,1,1.322-.346l6.83,6.83a.792.792,0,0,1-.386,1.332,17.469,17.469,0,0,0-6.515,2.5Z" transform="translate(-40.337 -218.031)" fill="#ffe177" fill-rule="evenodd"/>
      <path id="Path_2194" data-name="Path 2194" d="M44.178,246.333a2.6,2.6,0,0,1-1.609-4.437l1.937-1.937c1.307-1.984,1.856-4.558,2.436-6.627a.792.792,0,0,1,1.322-.346l.047.048a.77.77,0,0,0-.5.533c-.58,2.07-1.129,4.643-2.436,6.627l-1.937,1.937a2.615,2.615,0,0,0,0,3.687A2.581,2.581,0,0,0,44.178,246.333Z" transform="translate(-40.338 -218.032)" fill="#ffd064" fill-rule="evenodd"/>
      <path id="Path_2195" data-name="Path 2195" d="M47.765,362.538l-3.26-3.26-1.937,1.937a2.607,2.607,0,0,0,3.687,3.687l.569-.569,1.368-1.368Z" transform="translate(-40.338 -337.35)" fill="#fe646f" fill-rule="evenodd"/>
      <path id="Path_2196" data-name="Path 2196" d="M45.06,359.831l-.553-.553-1.937,1.937a2.6,2.6,0,0,0,1.609,4.437,2.584,2.584,0,0,1-.737-.516,2.615,2.615,0,0,1,0-3.687Z" transform="translate(-40.339 -337.35)" fill="#fd4755" fill-rule="evenodd"/>
      <path id="Path_2197" data-name="Path 2197" d="M130.892,235.374l-2.387-2.387a.792.792,0,0,0-1.322.346c-.1.34-.19.693-.287,1.055l7,7q.523-.126,1.048-.243a.792.792,0,0,0,.386-1.332l-2.267-2.267Z" transform="translate(-120.579 -218.032)" fill="#fe646f" fill-rule="evenodd"/>
      <path id="Path_2198" data-name="Path 2198" d="M128.552,233.035l-.047-.047a.792.792,0,0,0-1.322.346c-.1.34-.19.693-.287,1.055l.737.737c.146-.538.283-1.063.422-1.559A.77.77,0,0,1,128.552,233.035Z" transform="translate(-120.579 -218.033)" fill="#fd4755" fill-rule="evenodd"/>
      <path id="Path_2199" data-name="Path 2199" d="M216.921,185.088a.454.454,0,1,1-.039-.908,2.785,2.785,0,0,1,1.106.172,2.6,2.6,0,0,1,1.525,1.525,2.785,2.785,0,0,1,.172,1.106.454.454,0,1,1-.908-.039,1.879,1.879,0,0,0-.115-.747,1.708,1.708,0,0,0-.995-.995,1.881,1.881,0,0,0-.747-.115Zm4.342,1.824a4.292,4.292,0,0,0-.264-1.705,3.987,3.987,0,0,0-2.34-2.34,4.292,4.292,0,0,0-1.705-.264.454.454,0,1,0,.039.908,3.386,3.386,0,0,1,1.346.207,3.1,3.1,0,0,1,1.81,1.81,3.387,3.387,0,0,1,.208,1.346.454.454,0,1,0,.908.039Zm-4.2-4.979a4.9,4.9,0,0,1,1.945.3,4.491,4.491,0,0,1,2.624,2.624,4.9,4.9,0,0,1,.3,1.945.454.454,0,1,0,.908.039,5.8,5.8,0,0,0-.357-2.3,5.379,5.379,0,0,0-3.155-3.155,5.8,5.8,0,0,0-2.3-.357.454.454,0,1,0,.039.908Z" transform="translate(-205.029 -169.246)" fill="#8ac9fe" fill-rule="evenodd"/>
    </g>
  </g>
</svg>
