<svg xmlns="http://www.w3.org/2000/svg" width="9.408" height="18" viewBox="0 0 9.408 18">
  <path id="facebook" d="M2.891,18a.375.375,0,0,1-.376-.374v-7.34H.376a.376.376,0,0,1-.369-.3L0,9.91V6.844a.375.375,0,0,1,.376-.374l2.138,0V4.428C2.515,1.759,4.066.1,6.5,0L6.73,0l.25,0,.5.011.482.02.443.027.38.032.3.034A.375.375,0,0,1,9.408.5V3.239a.376.376,0,0,1-.376.375H7.452c-.885,0-1.1.266-1.1,1.117V6.469H8.77a.376.376,0,0,1,.374.339l0,.083L8.76,9.957a.375.375,0,0,1-.373.328H6.348v7.34a.376.376,0,0,1-.3.368L5.972,18Z" fill="#fff"/>
</svg>
