<svg xmlns="http://www.w3.org/2000/svg" width="17.752" height="17.778" viewBox="0 0 17.752 17.778">
  <g id="Group_18" data-name="Group 18" transform="translate(-0.344 0)">
    <path id="Path_2" data-name="Path 2" d="M14.382,11.013a1.749,1.749,0,0,0-1.268-.582,1.808,1.808,0,0,0-1.283.578l-1.186,1.182c-.1-.053-.2-.1-.289-.15-.135-.068-.263-.131-.371-.2A12.887,12.887,0,0,1,6.9,9.028a7.6,7.6,0,0,1-1.013-1.6c.308-.281.593-.574.871-.856.105-.105.21-.214.315-.319a1.722,1.722,0,0,0,0-2.6L6.045,2.634c-.116-.116-.236-.236-.349-.356-.225-.233-.462-.473-.705-.7a1.776,1.776,0,0,0-1.257-.552,1.838,1.838,0,0,0-1.276.552l-.008.008L1.174,2.875A2.745,2.745,0,0,0,.36,4.619,6.578,6.578,0,0,0,.84,7.4a16.156,16.156,0,0,0,2.87,4.788,17.658,17.658,0,0,0,5.88,4.6,9.161,9.161,0,0,0,3.3.976c.079,0,.161.008.236.008a2.827,2.827,0,0,0,2.165-.931c0-.008.011-.011.015-.019a8.53,8.53,0,0,1,.657-.679c.161-.154.326-.315.488-.484a1.872,1.872,0,0,0,.567-1.3,1.8,1.8,0,0,0-.578-1.287l-2.06-2.067Zm1.343,3.951s0,0,0,0c-.146.158-.3.3-.458.458a9.866,9.866,0,0,0-.724.75,1.809,1.809,0,0,1-1.411.6c-.056,0-.116,0-.173,0a8.138,8.138,0,0,1-2.927-.878A16.668,16.668,0,0,1,4.495,11.55a15.233,15.233,0,0,1-2.7-4.5A5.358,5.358,0,0,1,1.373,4.7a1.722,1.722,0,0,1,.518-1.114l1.28-1.28a.853.853,0,0,1,.57-.266.8.8,0,0,1,.548.263l.011.011c.229.214.447.435.675.672.116.12.236.24.356.364L6.356,4.375a.716.716,0,0,1,0,1.163c-.109.109-.214.218-.323.323-.315.323-.615.623-.942.916-.008.008-.015.011-.019.019a.765.765,0,0,0-.2.852l.011.034A8.224,8.224,0,0,0,6.1,9.659l0,0a13.772,13.772,0,0,0,3.332,3.032,5.123,5.123,0,0,0,.462.251c.135.068.263.131.371.2.015.008.03.019.045.026a.813.813,0,0,0,.371.094.8.8,0,0,0,.57-.259l1.283-1.283a.849.849,0,0,1,.567-.281.764.764,0,0,1,.54.274l.008.008,2.067,2.067a.742.742,0,0,1,0,1.174ZM9.939,4.229a4.829,4.829,0,0,1,3.932,3.932.5.5,0,0,0,.5.42.67.67,0,0,0,.086-.008.507.507,0,0,0,.416-.585,5.839,5.839,0,0,0-4.758-4.758.509.509,0,0,0-.585.413.5.5,0,0,0,.409.585Zm8.15,3.613A9.615,9.615,0,0,0,10.255.008a.506.506,0,1,0-.165,1,8.588,8.588,0,0,1,7,7,.5.5,0,0,0,.5.42.67.67,0,0,0,.086-.008.5.5,0,0,0,.413-.578Z" transform="translate(0 0)" fill="#fff"/>
  </g>
</svg>
