<svg xmlns="http://www.w3.org/2000/svg" width="12.878" height="18.316" viewBox="0 0 12.878 18.316">
  <g id="Group_19" data-name="Group 19" transform="translate(-76)">
    <path id="Path_4" data-name="Path 4" d="M82.439,0a6.44,6.44,0,0,0-5.478,9.825l5.111,8.237a.537.537,0,0,0,.456.254h0a.536.536,0,0,0,.456-.261L87.97,9.738A6.44,6.44,0,0,0,82.439,0Zm4.61,9.187L82.52,16.748,77.873,9.26a5.37,5.37,0,1,1,9.176-.073Z" transform="translate(0)" fill="#fff"/>
    <path id="Path_5" data-name="Path 5" d="M169.22,90a3.22,3.22,0,1,0,3.22,3.22A3.223,3.223,0,0,0,169.22,90Zm0,5.373a2.154,2.154,0,1,1,2.15-2.154A2.155,2.155,0,0,1,169.22,95.373Z" transform="translate(-86.78 -86.78)" fill="#fff"/>
  </g>
</svg>
