<svg xmlns="http://www.w3.org/2000/svg" width="38.701" height="36" viewBox="0 0 38.701 36">
  <path id="history" d="M37.15,20.2h2.7a1.334,1.334,0,0,0,1.278-.927,1.356,1.356,0,0,0-.468-1.5l-18-13.5a1.35,1.35,0,0,0-1.62,0l-18,13.5a1.352,1.352,0,0,0,.81,2.43H7V37.3H3.85a1.35,1.35,0,0,0,0,2.7h36a1.35,1.35,0,1,0,0-2.7H36.7V20.2ZM10.6,37.3H9.7V20.2h.9Zm8.1,0H13.3V20.2h5.4Zm3.6,0h-.9V20.2h.9Zm8.1,0H25V20.2h5.4Zm3.6,0h-.9V20.2H34ZM29.95,17.5H7.9L21.85,7.042,35.8,17.5Z" transform="translate(-2.499 -4)" fill="#fff"/>
</svg>
