<svg id="insta" xmlns="http://www.w3.org/2000/svg" width="13.5" height="13.5" viewBox="0 0 13.5 13.5">
  <path id="Path_6" data-name="Path 6" d="M9.846,0H3.654A3.658,3.658,0,0,0,0,3.654V9.846A3.658,3.658,0,0,0,3.654,13.5H9.846A3.658,3.658,0,0,0,13.5,9.846V3.654A3.658,3.658,0,0,0,9.846,0Zm2.863,9.846a2.866,2.866,0,0,1-2.863,2.863H3.654A2.866,2.866,0,0,1,.791,9.846V3.654A2.866,2.866,0,0,1,3.654.791H9.846a2.866,2.866,0,0,1,2.863,2.863Zm0,0" fill="#fff"/>
  <path id="Path_7" data-name="Path 7" d="M119.7,67.6a3.691,3.691,0,1,0,3.691,3.691A3.7,3.7,0,0,0,119.7,67.6Zm0,6.591a2.9,2.9,0,1,1,2.9-2.9A2.9,2.9,0,0,1,119.7,74.187Zm3.78-7.9a1.091,1.091,0,1,0,1.091,1.091A1.092,1.092,0,0,0,123.475,66.285Zm0,1.39a.3.3,0,1,1,.3-.3A.3.3,0,0,1,123.475,67.675Zm0,0" transform="translate(-112.945 -64.537)" fill="#fff"/>
</svg>
