<svg xmlns="http://www.w3.org/2000/svg" width="15.919" height="12.826" viewBox="0 0 15.919 12.826">
  <path id="twitter" d="M10.893,0A3.43,3.43,0,0,0,7.437,3.405l0,.207.009.123-.2-.02A8.572,8.572,0,0,1,1.647.678a.327.327,0,0,0-.536.045A3.385,3.385,0,0,0,.635,2.447l.006.2A3.364,3.364,0,0,0,1.2,4.313L1.26,4.4,1.1,4.316a.332.332,0,0,0-.485.3l.005.221A3.4,3.4,0,0,0,1.908,7.312l.084.063-.019,0a.341.341,0,0,0-.25.444L1.788,8A3.475,3.475,0,0,0,3.82,9.972l.223.073-.23.123a6.074,6.074,0,0,1-2.733.645,5.759,5.759,0,0,1-.709-.039.34.34,0,0,0-.213.626A9.262,9.262,0,0,0,5.13,12.826l.277,0a9.061,9.061,0,0,0,8.954-8.97l0-.313-.152.111a6.5,6.5,0,0,0,1.652-1.677.337.337,0,0,0-.4-.508l-.328.13-.163.053.044-.057a3.336,3.336,0,0,0,.463-.915A.334.334,0,0,0,15,.273L14.748.41a6,6,0,0,1-1.345.5L13.28.94l.134.132A3.489,3.489,0,0,0,10.893,0Z"/>
</svg>
